<svg xmlns="http://www.w3.org/2000/svg" version="1.1" xmlns:xlink="http://www.w3.org/1999/xlink" xmlns:svgjs="http://svgjs.dev/svgjs" width="1000" height="1000" viewBox="0 0 1000 1000"><rect width="1000" height="1000" fill="#c56e33"></rect><g transform="matrix(0.7,0,0,0.7,149.57575757575756,282.1265587044535)"><svg viewBox="0 0 396 247" data-background-color="#c56e33" preserveAspectRatio="xMidYMid meet" height="623" width="1000" xmlns="http://www.w3.org/2000/svg" xmlns:xlink="http://www.w3.org/1999/xlink"><g id="tight-bounds" transform="matrix(1,0,0,1,0.2400000000000091,-0.09999999999999432)"><svg viewBox="0 0 395.52 247.2" height="247.2" width="395.52"><g><svg></svg></g><g><svg viewBox="0 0 395.52 247.2" height="247.2" width="395.52"><g transform="matrix(1,0,0,1,75.54432,70.61862633637548)"><svg viewBox="0 0 244.43135999999998 105.962747327249" height="105.962747327249" width="244.43135999999998"><g><svg viewBox="0 0 244.43135999999998 105.962747327249" height="105.962747327249" width="244.43135999999998"><g><svg viewBox="0 0 244.43135999999998 105.962747327249" height="105.962747327249" width="244.43135999999998"><g><svg viewBox="0 0 244.43135999999998 105.962747327249" height="105.962747327249" width="244.43135999999998"><g id="textblocktransform"><svg viewBox="0 0 244.43135999999998 105.962747327249" height="105.962747327249" width="244.43135999999998" id="textblock"><g><svg viewBox="0 0 244.43135999999998 105.962747327249" height="105.962747327249" width="244.43135999999998"><g transform="matrix(1,0,0,1,0,0)"><svg width="244.43135999999998" viewBox="2.799999952316284 -33 76.69999694824219 33.25" height="105.962747327249" data-palette-color="#2a160c"><path d="M14.1 0L2.8 0 2.8-0.8 6.8-2.8 7.85-30.2 3.55-32.2 3.55-33 13.5-33 24.7-7.15 35.85-33 45.4-33 45.4-32.2 41.15-30.35 42-2.8 45.6-0.8 45.6 0 33.25 0 33.25-0.8 37-2.75 36.5-27.2 24.7 0.25 22.3 0.25 10.6-26.9 9.95-2.75 14.1-0.8 14.1 0ZM66 0L51.4 0 51.4-0.8 55.45-2.8 55.45-30.2 51.4-32.2 51.4-33 64.85-33Q68.2-33 70.87-32.18 73.55-31.35 75.07-29.73 76.6-28.1 76.6-25.6L76.6-25.6Q76.6-23.05 74.85-20.93 73.1-18.8 69.8-17.9L69.8-17.9Q74.35-17.3 76.92-15.13 79.5-12.95 79.5-9.6L79.5-9.6Q79.5-6.85 77.75-4.67 76-2.5 72.95-1.25 69.9 0 66 0L66 0ZM63.4-30.25L63.4-30.25 60.7-30.25 60.7-18.35 63.65-18.35Q67.2-18.35 69.15-19.9 71.1-21.45 71.1-24.15L71.1-24.15Q71.1-30.25 63.4-30.25ZM65.25-15.7L65.25-15.7 60.7-15.7 60.7-2.75 65.6-2.75Q69.45-2.75 71.67-4.58 73.9-6.4 73.9-9.25L73.9-9.25Q73.9-12.6 71.65-14.15 69.4-15.7 65.25-15.7Z" opacity="1" transform="matrix(1,0,0,1,0,0)" fill="#2a160c" class="wordmark-text-0" data-fill-palette-color="primary" id="text-0"></path></svg></g></svg></g></svg></g></svg></g><g></g></svg></g></svg></g></svg></g><g><path d="M103.669 45.603A122.216 122.216 0 0 1 291.851 45.603L282.296 45.603A112.66 112.66 0 0 0 113.224 45.603L103.669 45.603M103.669 201.597A122.216 122.216 0 0 0 291.851 201.597L282.296 201.597A112.66 112.66 0 0 1 113.224 201.597L103.669 201.597" fill="#2a160c" stroke="transparent" data-fill-palette-color="tertiary"></path></g></svg></g><defs></defs></svg><rect width="395.52" height="247.2" fill="none" stroke="none" visibility="hidden"></rect></g></svg></g></svg>